<?xml version="1.0" encoding="UTF-8" standalone="no"?><!DOCTYPE svg PUBLIC "-//W3C//DTD SVG 1.1//EN" "http://www.w3.org/Graphics/SVG/1.1/DTD/svg11.dtd"><svg width="100%" height="100%" viewBox="0 0 5538 1277" version="1.1" xmlns="http://www.w3.org/2000/svg" xmlns:xlink="http://www.w3.org/1999/xlink" xml:space="preserve" xmlns:serif="http://www.serif.com/" style="fill-rule:evenodd;clip-rule:evenodd;stroke-linejoin:round;stroke-miterlimit:2;"><path d="M100.865,729.779c-0,69.511 15.723,134.885 47.168,196.121c31.446,61.237 75.304,112.267 131.576,153.091c-4.414,-13.24 -7.724,-26.756 -9.931,-40.548c-2.206,-13.792 -3.31,-27.308 -3.31,-40.549c0,-35.307 6.62,-68.408 19.861,-99.302c13.24,-30.894 32.549,-59.029 57.926,-84.407l187.019,-183.709l187.019,183.709c25.377,25.378 44.686,53.513 57.927,84.407c13.24,30.894 19.86,63.995 19.86,99.302c-0,13.241 -1.103,26.757 -3.31,40.549c-2.207,13.792 -5.517,27.308 -9.93,40.548c56.271,-40.824 100.129,-91.854 131.575,-153.091c31.446,-61.236 47.169,-126.61 47.169,-196.121c-0,-59.582 -12.689,-117.784 -38.066,-174.607c-25.377,-56.823 -61.788,-108.956 -109.233,-156.401c-23.17,16.551 -47.444,29.515 -72.821,38.894c-25.377,9.378 -50.755,14.067 -76.132,14.067c-67.305,0 -123.024,-22.894 -167.159,-68.684c-44.134,-45.789 -66.201,-103.439 -66.201,-172.951l-0,-33.101c-50.754,36.411 -96.544,76.684 -137.368,120.818c-40.824,44.134 -75.58,90.199 -104.267,138.196c-28.688,47.996 -50.755,97.095 -66.202,147.298c-15.447,50.203 -23.17,99.026 -23.17,146.471Zm430.309,39.72l-117.507,115.853c-15.447,15.447 -27.309,32.549 -35.584,51.306c-8.275,18.757 -12.412,39.169 -12.412,61.236c-0,45.238 15.998,83.58 47.996,115.025c31.997,31.446 71.166,47.169 117.507,47.169c46.341,-0 85.51,-15.723 117.508,-47.169c31.997,-31.445 47.996,-69.787 47.996,-115.025c-0,-22.067 -4.138,-42.479 -12.413,-61.236c-8.275,-18.757 -20.136,-35.859 -35.583,-51.306l-117.508,-115.853Zm0,-767.937l0,218.465c0,37.514 12.965,68.96 38.893,94.337c25.929,25.378 57.651,38.066 95.165,38.066c19.861,0 38.342,-4.137 55.444,-12.413c17.102,-8.275 32.273,-20.688 45.513,-37.238l29.791,-36.411c81.648,46.341 146.195,110.888 193.639,193.64c47.445,82.751 71.167,172.675 71.167,269.771c-0,147.849 -51.306,273.081 -153.919,375.693c-102.612,102.612 -227.843,153.918 -375.693,153.918c-147.85,0 -273.081,-51.306 -375.693,-153.918c-102.612,-102.612 -153.919,-227.844 -153.919,-375.693c0,-141.23 47.445,-277.219 142.334,-407.967c94.888,-130.748 223.981,-237.498 387.278,-320.249Z" style="fill:#d3503d;fill-rule:nonzero;stroke:#fff;stroke-width:3.13px;"/><g transform="matrix(1221.91,0,0,1221.91,5600.3,1050.66)"></g><text x="1230.76px" y="1050.66px" style="font-family:'Ubuntu-Regular', 'Ubuntu', sans-serif;font-size:1221.9px;fill:#d3503d;">FireApp</text></svg>