<?xml version="1.0" encoding="UTF-8" standalone="no"?><!DOCTYPE svg PUBLIC "-//W3C//DTD SVG 1.1//EN" "http://www.w3.org/Graphics/SVG/1.1/DTD/svg11.dtd"><svg width="100%" height="100%" viewBox="0 0 2363 2363" version="1.1" xmlns="http://www.w3.org/2000/svg" xmlns:xlink="http://www.w3.org/1999/xlink" xml:space="preserve" xmlns:serif="http://www.serif.com/" style="fill-rule:evenodd;clip-rule:evenodd;stroke-linejoin:round;stroke-miterlimit:2;"><g id="Layer1"><path d="M656.788,1272.57c0,84.697 19.158,164.353 57.473,238.967c38.315,74.614 91.755,136.792 160.319,186.534c-5.377,-16.132 -9.411,-32.601 -12.099,-49.406c-2.689,-16.805 -4.033,-33.274 -4.033,-49.407c-0,-43.02 8.066,-83.352 24.199,-120.995c16.132,-37.643 39.659,-71.925 70.58,-102.846l227.875,-223.842l227.875,223.842c30.921,30.921 54.448,65.203 70.581,102.846c16.133,37.643 24.199,77.975 24.199,120.995c0,16.133 -1.344,32.602 -4.033,49.407c-2.689,16.805 -6.722,33.274 -12.1,49.406c68.565,-49.742 122.004,-111.92 160.32,-186.534c38.315,-74.614 57.473,-154.27 57.473,-238.967c-0,-72.597 -15.461,-143.514 -46.382,-212.75c-30.921,-69.237 -75.286,-132.759 -133.095,-190.568c-28.233,20.166 -57.809,35.962 -88.73,47.39c-30.921,11.427 -61.843,17.141 -92.764,17.141c-82.008,-0 -149.9,-27.896 -203.675,-83.689c-53.776,-55.792 -80.664,-126.037 -80.664,-210.734l-0,-40.332c-61.842,44.365 -117.635,93.436 -167.377,147.212c-49.743,53.775 -92.091,109.904 -127.046,168.385c-34.954,58.481 -61.842,118.307 -80.663,179.477c-18.822,61.17 -28.233,120.659 -28.233,178.468Zm524.314,48.399l-143.178,141.161c-18.821,18.822 -33.274,39.66 -43.356,62.514c-10.083,22.855 -15.125,47.727 -15.125,74.614c0,55.121 19.494,101.838 58.481,140.154c38.988,38.315 86.714,57.473 143.178,57.473c56.465,-0 104.191,-19.158 143.178,-57.473c38.988,-38.316 58.482,-85.033 58.482,-140.154c-0,-26.887 -5.042,-51.759 -15.125,-74.614c-10.083,-22.854 -24.535,-43.692 -43.357,-62.514l-143.178,-141.161Zm0,-935.699l0,266.19c0,45.709 15.797,84.024 47.39,114.946c31.594,30.921 70.245,46.381 115.954,46.381c24.199,0 46.718,-5.041 67.556,-15.124c20.838,-10.083 39.324,-25.208 55.457,-45.374l36.298,-44.365c99.485,56.465 178.133,135.112 235.942,235.942c57.809,100.829 86.713,210.398 86.713,328.704c0,180.149 -62.514,332.738 -187.543,457.767c-125.029,125.029 -277.618,187.543 -457.767,187.543c-180.149,0 -332.737,-62.514 -457.766,-187.543c-125.029,-125.029 -187.543,-277.618 -187.543,-457.767c-0,-172.082 57.809,-337.779 173.427,-497.09c115.618,-159.311 272.912,-289.381 471.882,-390.21Z" style="fill:#fff;fill-rule:nonzero;stroke:#fff;stroke-width:1px;"/></g></svg>